# File created by Blade
# Date/Time:  Wed Jan 21 17:10:37 2015
# Frame Rate: 120.000 fps
#------------------------------------------------------
:FULLY-SPECIFIED
:DEGREES
804
root 19.810751 3.393329 -11.579129 -236.647411 4.336207 -185.092236
Spine 65.813623 5.072873 -8.338579
Head -12.420598 -8.347465 4.865850
LeftShoulder 12.922530 -29.061638 -14.548310
LeftArm 18.301854 27.715499 -67.169469
LeftForeArm -72.766706 -0.000000 100.734514
LeftHand -2.201458 -0.000000 1.547313
LeftHandThumb1 -26.253704 0.000000 33.147579
RightShoulder 6.458927 9.850651 -25.291723
RightArm 67.633671 6.177205 8.398199
RightForeArm -0.885841 -0.000000 104.410466
RightHand -12.888291 0.000000 1.240218
RightHandThumb1 -24.326973 -0.000000 -32.862282
LeftUpLeg -34.566001 32.383540 -2.451764
LeftLeg -1.279898 -0.000000 0.000000
LeftFoot 18.143019 34.928622 -1.118173
LeftToeBase 18.508965 -0.000000 -0.000000
RightUpLeg -113.980670 13.923348 81.318132
RightLeg 120.381346 -0.000000 -0.000000
RightFoot 39.119296 -23.533171 10.168018
RightToeBase 25.017103 -0.000000 -0.000000
805
root 19.811565 3.394393 -11.580259 -236.641644 4.348564 -185.087641
Spine 65.772973 5.057609 -8.363530
Head -12.455643 -8.367492 4.897173
LeftShoulder 12.861551 -29.079146 -14.576281
LeftArm 18.332991 27.732875 -67.101448
LeftForeArm -72.660534 -0.000000 100.729767
LeftHand -2.211877 -0.000000 1.609363
LeftHandThumb1 -26.253704 0.000000 33.147579
RightShoulder 6.481885 9.835515 -25.210016
RightArm 67.658976 6.165361 8.395494
RightForeArm -1.223528 -0.000000 104.538421
RightHand -12.905865 -0.000000 1.309165
RightHandThumb1 -24.326973 -0.000000 -32.862282
LeftUpLeg -34.573775 32.402688 -2.447618
LeftLeg -1.289948 -0.000000 0.000000
LeftFoot 18.169363 34.927932 -1.117822
LeftToeBase 18.487633 -0.000000 -0.000000
RightUpLeg -113.992450 13.933682 81.378354
RightLeg 120.368030 -0.000000 -0.000000
RightFoot 38.604490 -23.366952 11.524109
RightToeBase 25.267572 -0.000000 -0.000000
806
root 19.813551 3.395095 -11.581119 -236.634723 4.365283 -185.084886
Spine 65.725619 5.045194 -8.395362
Head -12.482419 -8.372630 4.924405
LeftShoulder 12.841052 -29.103156 -14.600389
LeftArm 18.308757 27.720931 -67.060335
LeftForeArm -72.491738 0.000000 100.755627
LeftHand -2.189385 -0.000000 1.604493
LeftHandThumb1 -26.253704 0.000000 33.147579
RightShoulder 6.517940 9.821889 -25.125940
RightArm 67.701002 6.148704 8.396308
RightForeArm -1.505180 0.000000 104.611980
RightHand -12.913139 -0.000000 1.276750
RightHandThumb1 -24.326973 -0.000000 -32.862282
LeftUpLeg -34.581577 32.422292 -2.438048
LeftLeg -1.292598 -0.000000 0.000000
LeftFoot 18.193010 34.922383 -1.104985
LeftToeBase 18.488213 -0.000000 -0.000000
RightUpLeg -113.991523 13.949087 81.466459
RightLeg 120.352193 -0.000000 -0.000000
RightFoot 37.963356 -23.074074 12.830374
RightToeBase 25.632440 -0.000000 -0.000000
807
root 19.815301 3.395758 -11.582716 -236.621296 4.382990 -185.068104
Spine 65.680551 5.024793 -8.431396
Head -12.534881 -8.353198 4.983898
LeftShoulder 12.787006 -29.223607 -14.618419
LeftArm 18.205827 27.756962 -67.099402
LeftForeArm -72.358308 -0.000000 100.759745
LeftHand -2.227560 -0.000000 1.610530
LeftHandThumb1 -26.253704 0.000000 33.147579
RightShoulder 6.552301 9.824483 -25.010557
RightArm 67.733684 6.123343 8.354454
RightForeArm -1.742885 -0.000000 104.709262
RightHand -12.969445 0.000000 1.206247
RightHandThumb1 -24.326973 -0.000000 -32.862282
LeftUpLeg -34.600537 32.435740 -2.427850
LeftLeg -1.298582 -0.000000 0.000000
LeftFoot 18.228241 34.918402 -1.089407
LeftToeBase 18.507097 -0.000000 -0.000000
RightUpLeg -114.011819 13.965394 81.558530
RightLeg 120.346775 -0.000000 -0.000000
RightFoot 37.300362 -22.667768 14.295104
RightToeBase 25.512909 -0.000000 -0.000000
808
root 19.816348 3.395833 -11.585065 -236.613728 4.389954 -185.058399
Spine 65.652551 5.022773 -8.421696
Head -12.614648 -8.419937 5.017835
LeftShoulder 12.813555 -29.303870 -14.656860
LeftArm 18.090477 27.792603 -67.117368
LeftForeArm -72.232164 0.000000 100.848623
LeftHand -2.197299 -0.000000 1.712503
LeftHandThumb1 -26.253704 0.000000 33.147579
RightShoulder 6.529656 9.837495 -24.931563
RightArm 67.764806 6.063481 8.309461
RightForeArm -1.978974 -0.000000 104.822495
RightHand -13.056669 -0.000000 1.202014
RightHandThumb1 -24.326973 -0.000000 -32.862282
LeftUpLeg -34.605753 32.430950 -2.414060
LeftLeg -1.306205 -0.000000 0.000000
LeftFoot 18.272999 34.931947 -1.075489
LeftToeBase 18.439904 -0.000000 -0.000000
RightUpLeg -114.031191 13.992800 81.649260
RightLeg 120.334421 -0.000000 -0.000000
RightFoot 36.522376 -22.259429 15.849945
RightToeBase 25.305915 -0.000000 -0.000000
809
root 19.817291 3.395726 -11.586392 -236.602871 4.403199 -185.048918
Spine 65.611605 5.007042 -8.444591
Head -12.666155 -8.459686 5.040561
LeftShoulder 12.751031 -29.254490 -14.664335
LeftArm 18.160296 27.805543 -67.023144
LeftForeArm -72.036363 -0.000000 100.873818
LeftHand -2.120244 -0.000000 1.684983
LeftHandThumb1 -26.253704 0.000000 33.147579
RightShoulder 6.585165 9.854923 -24.843050
RightArm 67.741675 6.007646 8.247562
RightForeArm -2.225768 -0.000000 105.002806
RightHand -13.197542 -0.000000 1.128590
RightHandThumb1 -24.326973 -0.000000 -32.862282
LeftUpLeg -34.619129 32.440065 -2.408092
LeftLeg -1.313727 -0.000000 0.000000
LeftFoot 18.327020 34.923241 -1.046913
LeftToeBase 18.428924 -0.000000 -0.000000
RightUpLeg -114.037217 14.015602 81.735521
RightLeg 120.332330 -0.000000 -0.000000
RightFoot 35.590421 -21.691964 17.448826
RightToeBase 25.207628 -0.000000 -0.000000
810
root 19.818173 3.395058 -11.588662 -236.583185 4.410484 -185.036380
Spine 65.567385 4.987139 -8.467843
Head -12.740060 -8.519577 5.082243
LeftShoulder 12.689647 -29.210526 -14.677125
LeftArm 18.223353 27.803912 -66.943893
LeftForeArm -71.899981 -0.000000 100.904601
LeftHand -2.057080 -0.000000 1.562674
LeftHandThumb1 -26.253704 0.000000 33.147579
RightShoulder 6.628148 9.868171 -24.764197
RightArm 67.735208 5.954890 8.194019
RightForeArm -2.476602 0.000000 105.190201
RightHand -13.325145 -0.000000 1.021927
RightHandThumb1 -24.326973 -0.000000 -32.862282
LeftUpLeg -34.650920 32.455438 -2.419458
LeftLeg -1.316096 -0.000000 0.000000
LeftFoot 18.415796 34.883860 -0.986309
LeftToeBase 18.369635 -0.000000 -0.000000
RightUpLeg -114.036379 14.056751 81.840431
RightLeg 120.336466 -0.000000 -0.000000
RightFoot 34.595190 -20.988714 18.805094
RightToeBase 25.429903 -0.000000 -0.000000
811
root 19.819260 3.394276 -11.590357 -236.552560 4.432653 -185.023909
Spine 65.519362 4.978685 -8.479641
Head -12.844724 -8.579696 5.129714
LeftShoulder 12.591445 -29.179577 -14.678651
LeftArm 18.349791 27.837394 -66.894516
LeftForeArm -71.711530 -0.000000 100.870539
LeftHand -1.976395 -0.000000 1.477579
LeftHandThumb1 -26.253704 0.000000 33.147579
RightShoulder 6.665757 9.880390 -24.656444
RightArm 67.742371 5.917507 8.131951
RightForeArm -2.719873 -0.000000 105.364854
RightHand -13.392776 0.000000 0.910907
RightHandThumb1 -24.326973 -0.000000 -32.862282
LeftUpLeg -34.689279 32.456040 -2.409934
LeftLeg -1.314508 -0.000000 0.000000
LeftFoot 18.475745 34.881899 -0.935477
LeftToeBase 18.327657 -0.000000 -0.000000
RightUpLeg -114.024988 14.119063 81.967631
RightLeg 120.340766 -0.000000 -0.000000
RightFoot 33.501588 -20.350608 20.227684
RightToeBase 25.536477 -0.000000 -0.000000
812
root 19.821149 3.393578 -11.591543 -236.528603 4.451857 -185.004222
Spine 65.471879 4.962233 -8.497169
Head -12.914036 -8.658102 5.163444
LeftShoulder 12.481735 -29.095846 -14.666376
LeftArm 18.504755 27.847433 -66.789723
LeftForeArm -71.615036 -0.000000 100.878492
LeftHand -1.905597 0.000000 1.369249
LeftHandThumb1 -26.253704 0.000000 33.147579
RightShoulder 6.736929 9.877777 -24.543211
RightArm 67.735102 5.896823 8.102826
RightForeArm -3.025803 -0.000000 105.544144
RightHand -13.383088 -0.000000 0.858276
RightHandThumb1 -24.326973 -0.000000 -32.862282
LeftUpLeg -34.719918 32.455952 -2.393278
LeftLeg -1.310738 -0.000000 0.000000
LeftFoot 18.473256 34.888707 -1.014412
LeftToeBase 18.326416 -0.000000 -0.000000
RightUpLeg -114.012930 14.168331 82.108783
RightLeg 120.338463 -0.000000 -0.000000
RightFoot 32.480663 -19.709953 21.543957
RightToeBase 25.496657 -0.000000 -0.000000
813
root 19.821596 3.392864 -11.593302 -236.495998 4.459440 -184.997999
Spine 65.420585 4.960850 -8.524707
Head -12.997820 -8.713916 5.218421
LeftShoulder 12.388560 -29.121406 -14.663648
LeftArm 18.528041 27.893398 -66.788987
LeftForeArm -71.514958 0.000000 100.899325
LeftHand -1.915730 0.000000 1.279938
LeftHandThumb1 -26.253704 0.000000 33.147579
RightShoulder 6.790774 9.891441 -24.424768
RightArm 67.727214 5.855299 8.102857
RightForeArm -3.310904 -0.000000 105.757709
RightHand -13.414225 -0.000000 0.826981
RightHandThumb1 -24.326973 -0.000000 -32.862282
LeftUpLeg -34.770797 32.469253 -2.417404
LeftLeg -1.306777 -0.000000 0.000000
LeftFoot 18.544093 34.864967 -0.955311
LeftToeBase 18.303447 -0.000000 -0.000000
RightUpLeg -113.998744 14.237250 82.219601
RightLeg 120.331575 -0.000000 -0.000000
RightFoot 31.497851 -19.104904 22.799989
RightToeBase 25.441337 -0.000000 -0.000000
